<?xml version="1.0" encoding="UTF-8" standalone="no"?>
<!-- Created with Inkscape (http://www.inkscape.org/) -->

<svg
   xmlns:dc="http://purl.org/dc/elements/1.1/"
   xmlns:cc="http://creativecommons.org/ns#"
   xmlns:rdf="http://www.w3.org/1999/02/22-rdf-syntax-ns#"
   xmlns:svg="http://www.w3.org/2000/svg"
   xmlns="http://www.w3.org/2000/svg"
   xmlns:sodipodi="http://sodipodi.sourceforge.net/DTD/sodipodi-0.dtd"
   xmlns:inkscape="http://www.inkscape.org/namespaces/inkscape"
   width="40.639999mm"
   height="6.7733335mm"
   viewBox="0 0 144 24.000001"
   id="svg2"
   version="1.1"
   inkscape:version="0.91 r13725"
   sodipodi:docname="icons.svg">
  <defs
     id="defs4" />
  <sodipodi:namedview
     id="base"
     pagecolor="#ffffff"
     bordercolor="#666666"
     borderopacity="1.0"
     inkscape:pageopacity="0.0"
     inkscape:pageshadow="2"
     inkscape:zoom="3.959798"
     inkscape:cx="113.54298"
     inkscape:cy="-14.299558"
     inkscape:document-units="px"
     inkscape:current-layer="layer1"
     showgrid="false"
     fit-margin-top="0"
     fit-margin-left="0"
     fit-margin-right="0"
     fit-margin-bottom="0"
     inkscape:window-width="1920"
     inkscape:window-height="1016"
     inkscape:window-x="0"
     inkscape:window-y="27"
     inkscape:window-maximized="1" />
  <metadata
     id="metadata7">
    <rdf:RDF>
      <cc:Work
         rdf:about="">
        <dc:format>image/svg+xml</dc:format>
        <dc:type
           rdf:resource="http://purl.org/dc/dcmitype/StillImage" />
        <dc:title></dc:title>
      </cc:Work>
    </rdf:RDF>
  </metadata>
  <g
     inkscape:label="Layer 1"
     inkscape:groupmode="layer"
     id="layer1"
     transform="translate(0,-0.36220472)">
    <g
       style="fill:#000000"
       id="g3398"
       transform="translate(0,0.36220472)">
      <path
         id="settings"
         d="m 19.43,12.98 c 0.04,-0.32 0.07,-0.64 0.07,-0.98 0,-0.34 -0.03,-0.66 -0.07,-0.98 l 2.11,-1.65 c 0.19,-0.15 0.24,-0.42 0.12,-0.64 l -2,-3.46 C 19.54,5.05 19.27,4.97 19.05,5.05 l -2.49,1 C 16.04,5.65 15.48,5.32 14.87,5.07 L 14.49,2.42 C 14.46,2.18 14.25,2 14,2 L 10,2 C 9.75,2 9.54,2.18 9.51,2.42 L 9.13,5.07 C 8.52,5.32 7.96,5.66 7.44,6.05 l -2.49,-1 C 4.72,4.96 4.46,5.05 4.34,5.27 l -2,3.46 C 2.21,8.95 2.27,9.22 2.46,9.37 l 2.11,1.65 C 4.53,11.34 4.5,11.67 4.5,12 c 0,0.33 0.03,0.66 0.07,0.98 l -2.11,1.65 c -0.19,0.15 -0.24,0.42 -0.12,0.64 l 2,3.46 c 0.12,0.22 0.39,0.3 0.61,0.22 l 2.49,-1 c 0.52,0.4 1.08,0.73 1.69,0.98 l 0.38,2.65 C 9.54,21.82 9.75,22 10,22 l 4,0 c 0.25,0 0.46,-0.18 0.49,-0.42 l 0.38,-2.65 c 0.61,-0.25 1.17,-0.59 1.69,-0.98 l 2.49,1 c 0.23,0.09 0.49,0 0.61,-0.22 l 2,-3.46 c 0.12,-0.22 0.07,-0.49 -0.12,-0.64 L 19.43,12.98 Z M 12,15.5 c -1.93,0 -3.5,-1.57 -3.5,-3.5 0,-1.93 1.57,-3.5 3.5,-3.5 1.93,0 3.5,1.57 3.5,3.5 0,1.93 -1.57,3.5 -3.5,3.5 z"
         inkscape:connector-curvature="0" />
    </g>
    <g
       style="fill:#000000"
       id="g3457"
       transform="translate(25,0.36220472)">
      <path
         id="search"
         d="m 15.5,14 -0.79,0 -0.28,-0.27 C 15.41,12.59 16,11.11 16,9.5 16,5.91 13.09,3 9.5,3 5.91,3 3,5.91 3,9.5 3,13.09 5.91,16 9.5,16 c 1.61,0 3.09,-0.59 4.23,-1.57 L 14,14.71 14,15.5 19,20.49 20.49,19 15.5,14 Z m -6,0 C 7.01,14 5,11.99 5,9.5 5,7.01 7.01,5 9.5,5 11.99,5 14,7.01 14,9.5 14,11.99 11.99,14 9.5,14 Z"
         inkscape:connector-curvature="0" />
    </g>
    <g
       style="fill:#000000"
       id="g3516"
       transform="translate(48.2,0.36220472)">
      <path
         id="phone"
         d="m 6.62,10.79 c 1.44,2.83 3.76,5.14 6.59,6.59 l 2.2,-2.2 c 0.27,-0.27 0.67,-0.36 1.02,-0.24 1.12,0.37 2.33,0.57 3.57,0.57 0.55,0 1,0.45 1,1 L 21,20 c 0,0.55 -0.45,1 -1,1 C 10.61,21 3,13.39 3,4 3,3.45 3.45,3 4,3 l 3.5,0 c 0.55,0 1,0.45 1,1 0,1.25 0.2,2.45 0.57,3.57 0.11,0.35 0.03,0.74 -0.25,1.02 l -2.2,2.2 z"
         inkscape:connector-curvature="0" />
    </g>
    <g
       style="fill:#000000"
       id="g3575"
       transform="translate(72,0.36220472)">
      <path
         id="pin"
         d="M 12,2 C 8.13,2 5,5.13 5,9 c 0,5.25 7,13 7,13 0,0 7,-7.75 7,-13 0,-3.87 -3.13,-7 -7,-7 z m 0,9.5 C 10.62,11.5 9.5,10.38 9.5,9 9.5,7.62 10.62,6.5 12,6.5 c 1.38,0 2.5,1.12 2.5,2.5 0,1.38 -1.12,2.5 -2.5,2.5 z"
         inkscape:connector-curvature="0" />
    </g>
    <g
       style="fill:#000000"
       id="g3689"
       transform="translate(96,0.36220472)">
      <path
         id="fingerprint"
         d="M 17.81,4.47 C 17.73,4.47 17.65,4.45 17.58,4.41 15.66,3.42 14,3 12.01,3 10.03,3 8.15,3.47 6.44,4.41 6.2,4.54 5.9,4.45 5.76,4.21 5.63,3.97 5.72,3.66 5.96,3.53 7.82,2.52 9.86,2 12.01,2 c 2.13,0 3.99,0.47 6.03,1.52 0.25,0.13 0.34,0.43 0.21,0.67 -0.09,0.18 -0.26,0.28 -0.44,0.28 z M 3.5,9.72 C 3.4,9.72 3.3,9.69 3.21,9.63 2.98,9.47 2.93,9.16 3.09,8.93 4.08,7.53 5.34,6.43 6.84,5.66 9.98,4.04 14,4.03 17.15,5.65 18.65,6.42 19.91,7.51 20.9,8.9 21.06,9.12 21.01,9.44 20.78,9.6 20.55,9.76 20.24,9.71 20.08,9.48 19.18,8.22 18.04,7.23 16.69,6.54 13.82,5.07 10.15,5.07 7.29,6.55 5.93,7.25 4.79,8.25 3.89,9.51 3.81,9.65 3.66,9.72 3.5,9.72 Z M 9.75,21.79 C 9.62,21.79 9.49,21.74 9.4,21.64 8.53,20.77 8.06,20.21 7.39,19 6.7,17.77 6.34,16.27 6.34,14.66 6.34,11.69 8.88,9.27 12,9.27 c 3.12,0 5.66,2.42 5.66,5.39 0,0.28 -0.22,0.5 -0.5,0.5 -0.28,0 -0.5,-0.22 -0.5,-0.5 0,-2.42 -2.09,-4.39 -4.66,-4.39 -2.57,0 -4.66,1.97 -4.66,4.39 0,1.44 0.32,2.77 0.93,3.85 0.64,1.15 1.08,1.64 1.85,2.42 0.19,0.2 0.19,0.51 0,0.71 -0.11,0.1 -0.24,0.15 -0.37,0.15 z m 7.17,-1.85 c -1.19,0 -2.24,-0.3 -3.1,-0.89 -1.49,-1.01 -2.38,-2.65 -2.38,-4.39 0,-0.28 0.22,-0.5 0.5,-0.5 0.28,0 0.5,0.22 0.5,0.5 0,1.41 0.72,2.74 1.94,3.56 0.71,0.48 1.54,0.71 2.54,0.71 0.24,0 0.64,-0.03 1.04,-0.1 0.27,-0.05 0.53,0.13 0.58,0.41 0.05,0.27 -0.13,0.53 -0.41,0.58 -0.57,0.11 -1.07,0.12 -1.21,0.12 z M 14.91,22 c -0.04,0 -0.09,-0.01 -0.13,-0.02 -1.59,-0.44 -2.63,-1.03 -3.72,-2.1 -1.4,-1.39 -2.17,-3.24 -2.17,-5.22 0,-1.62 1.38,-2.94 3.08,-2.94 1.7,0 3.08,1.32 3.08,2.94 0,1.07 0.93,1.94 2.08,1.94 1.15,0 2.08,-0.87 2.08,-1.94 0,-3.77 -3.25,-6.83 -7.25,-6.83 -2.84,0 -5.44,1.58 -6.61,4.03 -0.39,0.81 -0.59,1.76 -0.59,2.8 0,0.78 0.07,2.01 0.67,3.61 0.1,0.26 -0.03,0.55 -0.29,0.64 C 4.88,19.01 4.59,18.87 4.5,18.62 4.01,17.31 3.77,16.01 3.77,14.66 c 0,-1.2 0.23,-2.29 0.68,-3.24 1.33,-2.79 4.28,-4.6 7.51,-4.6 4.55,0 8.25,3.51 8.25,7.83 0,1.62 -1.38,2.94 -3.08,2.94 -1.7,0 -3.08,-1.32 -3.08,-2.94 0,-1.07 -0.93,-1.94 -2.08,-1.94 -1.15,0 -2.08,0.87 -2.08,1.94 0,1.71 0.66,3.31 1.87,4.51 0.95,0.94 1.86,1.46 3.27,1.85 0.27,0.07 0.42,0.35 0.35,0.61 C 15.33,21.85 15.12,22 14.91,22 Z"
         inkscape:connector-curvature="0" />
    </g>
    <g
       style="fill:#000000"
       id="g3803"
       transform="translate(120,0.36220472)">
      <path
         id="cloud"
         d="M 19.35,10.04 C 18.67,6.59 15.64,4 12,4 9.11,4 6.6,5.64 5.35,8.04 2.34,8.36 0,10.91 0,14 c 0,3.31 2.69,6 6,6 l 13,0 c 2.76,0 5,-2.24 5,-5 0,-2.64 -2.05,-4.78 -4.65,-4.96 z"
         inkscape:connector-curvature="0" />
    </g>
  </g>
</svg>
